<?xml version="1.0" encoding="utf-8"?>
<!-- Generator: Adobe Illustrator 20.1.0, SVG Export Plug-In . SVG Version: 6.00 Build 0)  -->
<svg version="1.1" id="圖層_1" xmlns="http://www.w3.org/2000/svg" xmlns:xlink="http://www.w3.org/1999/xlink" x="0px" y="0px"
	 viewBox="0 0 143 143" style="enable-background:new 0 0 143 143;" xml:space="preserve">
<style type="text/css">
	.st0{fill:#FFFFFF;}
	.st1{fill:#C8C9CA;}
	.st2{fill:#231815;}
	.st3{fill:#9E9E9F;}
	.st4{fill:#004097;}
	.st5{fill:#E50012;}
	.st6{fill:#004097;stroke:#004097;}
</style>
<title>Ming_Chuan_University_LOGO</title>
<g>
	<path class="st0" d="M1.1,71.5c0-38.8,31.6-70.4,70.4-70.4s70.4,31.6,70.4,70.4s-31.6,70.4-70.4,70.4S1.1,110.3,1.1,71.5z"/>
	<path class="st1" d="M123.8,70.3c0.4,29.1-22.8,53-51.7,53.4c-29,0.4-52.7-22.9-53.1-52c-0.4-29.1,22.8-53,51.7-53.4
		C99.7,17.9,123.4,41.2,123.8,70.3z"/>
	<g>
		<path class="st0" d="M102,52.3L102,52.3c1,1.6,2,3.3,2.9,5v0.1l0,0c0.7,1.3,1.3,2.6,1.8,3.9l0,0l0,0c4-4.8,7.6-9.9,10.7-15.4
			c-2-3.7-4.4-7.2-7.2-10.3c-2.7,5.3-5.8,10.3-9.4,15C101.3,51.2,101.7,51.7,102,52.3z"/>
		<path class="st0" d="M108.1,64.7c0.2,0.5,0.3,0.9,0.5,1.4c0.1,0.2,0.2,0.5,0.2,0.7c0.2,0.5,0.3,1,0.5,1.5c0.1,0.2,0.1,0.4,0.2,0.5
			c0.2,0.6,0.3,1.2,0.5,1.8c0,0.1,0,0.2,0.1,0.3c0.2,0.7,0.3,1.4,0.5,2.1c0,0,0,0,0,0.1l0,0c0.3,1.4,0.5,2.8,0.7,4.2l0,0l0,0
			c4.4-4.5,8.4-9.3,12.1-14.4c-0.8-4.9-2.2-9.7-4.2-14.1c-3.2,5.4-6.9,10.6-11.1,15.3C108,64.4,108.1,64.5,108.1,64.7z"/>
		<path class="st0" d="M85.9,35.5c-4.5,8.9-10.7,16.8-18.3,23.4c8.5-5.5,15.8-12.6,21.7-20.8l0,0c2.9-4.1,5.4-8.5,7.5-13.2
			c-3.3-1.8-6.7-3.3-10.3-4.4c-1.8,4-4,7.8-6.5,11.3C82,32.9,84,34.1,85.9,35.5z"/>
		<path class="st0" d="M96.4,44.9C90.5,55.4,82.5,64.6,73,72c10.2-6.2,19.1-14.3,26.2-23.8l0,0c3.5-4.6,6.5-9.6,9-14.8
			c-2.7-2.7-5.8-5.1-9-7.2c-2.2,4.8-4.8,9.3-7.8,13.6C93.2,41.4,94.9,43.1,96.4,44.9z"/>
		<path class="st0" d="M123.7,67.1c-3.7,4.9-7.8,9.6-12.2,13.9c0,0.2,0,0.3,0,0.5c0,0.5,0.1,0.9,0.1,1.4c0,0.7,0,1.3,0,2
			c0,0.6,0,1.3,0,1.9c0,0.1,0,0.3,0,0.4c0,0.6,0,1.1-0.1,1.7c0,0.1,0,0.1,0,0.2c-0.2,2.7-0.6,5.4-1.1,8c3.9-3.2,7.5-6.6,11-10.1
			c1.6-5.2,2.5-10.8,2.4-16.6C123.8,69.2,123.8,68.1,123.7,67.1z"/>
		<path class="st0" d="M73.8,28.9c-3.2,6.5-7.5,12.4-12.7,17.4C67.4,42,73,36.6,77.4,30.4l0,0c2.4-3.4,4.5-7,6.3-10.8
			c-3.8-0.9-7.8-1.4-11.8-1.5c-1.6,2.9-3.4,5.7-5.5,8.2C68.9,27.1,71.4,27.9,73.8,28.9z"/>
		<path class="st0" d="M107.7,106.2c0,0.1,0,0.1-0.1,0.2c-0.3,0.7-0.6,1.5-0.9,2.2c0,0,0,0,0,0.1c-0.3,0.7-0.7,1.5-1,2.2
			c5.6-4.8,10.1-10.8,13.2-17.6c-3.1,2.9-6.3,5.7-9.7,8.3C108.8,103.1,108.3,104.7,107.7,106.2z"/>
		<path class="st0" d="M60.2,25.2c-1.8,3.3-4.1,6.4-6.6,9.3c3.6-2.5,6.9-5.4,9.7-8.7l0,0c2-2.3,3.8-4.8,5.3-7.4
			c-8.1,0.4-15.7,2.7-22.5,6.4c1.7-0.1,3.4-0.2,5.2-0.2C54.3,24.6,57.3,24.8,60.2,25.2z"/>
	</g>
	<path class="st2" d="M0.1,71.5c0,39.4,32,71.4,71.4,71.4s71.4-32,71.4-71.4s-32-71.4-71.4-71.4C32.1,0.1,0.1,32.1,0.1,71.5z
		 M1.1,71.5c0-38.8,31.6-70.4,70.4-70.4s70.4,31.6,70.4,70.4s-31.6,70.4-70.4,70.4S1.1,110.3,1.1,71.5z"/>
	<path class="st3" d="M70.7,18c-14,0.2-27.1,5.8-37,15.9s-15.2,23.6-15,37.8c0.4,29.2,24.3,52.7,53.4,52.3c14-0.2,27.1-5.8,37-15.9
		s15.2-23.6,15-37.8l0,0C123.7,41.1,99.8,17.6,70.7,18z M19.2,71.6c-0.2-14,5.1-27.3,14.9-37.4c9.7-10,22.7-15.6,36.6-15.7
		c28.8-0.4,52.5,22.9,52.9,51.8l0,0c0.2,14.1-5.1,27.3-14.9,37.4c-9.7,10-22.7,15.6-36.6,15.7C43.3,123.8,19.6,100.6,19.2,71.6z"/>
	<g>
		<path class="st4" d="M95.5,73.5C88.2,75.6,84,79.8,84,79.9c-4,4-8.3,5.9-12.9,5.8c-6.9-0.2-11.9-5-12.8-5.9
			C49.6,73,40,70.9,29.9,73.6c-4.2,1.1-7.6,2.8-9.9,4.2l6.5,6.5c3.2-1.8,7.3-3.3,11.9-3.2c6.1,0,11.8,2.8,16.8,8.1V89
			c0.6,0.6,14.4,13.8,31.2,0.2c1-1.2,7.4-8,17.2-8.4c4.4-0.2,8.8,0.9,13.1,3.3l6.1-6.1C113.5,72.5,104.3,71,95.5,73.5z"/>
		<path class="st5" d="M103.9,84.5c-8.8,0.4-14.6,7.2-14.7,7.2l-0.1,0.1L88.9,92c-10.2,8.3-19.5,7.8-25.6,5.9
			c-6.5-2-10.6-6-10.8-6.2l0,0l0,0c-4.3-4.6-9-6.9-14.1-6.9c-3.4,0-6.5,1-9.1,2.3l4.3,4.2c7.9-4,12.4,2.2,12.4,2.2
			c27.3,27,50.4-0.4,50.4-0.4c5.8-5.4,11.8-2.2,12.9-1.5l4.7-4.7C110.6,85.1,107.2,84.4,103.9,84.5z"/>
		<path class="st6" d="M60.7,76.9L60.7,76.9l0.2,0.2c0,0,4.4,4.7,10.3,4.9c3.5,0.1,6.9-1.5,10.1-4.7c0.2-0.2,4.9-4.9,13-7.3
			c7-2.1,18-2.7,31.4,5.3l11.8-11.7c-30.4-18.2-55-6.3-55-6.3c-5.4,1.1-2.6-3.9-2.6-3.9c9.2-16-8.9-19-8.9-19l-13.5,9.1
			C70,58,60.9,57.3,60.9,57.3c-31.7-10.9-54.8,5.5-55.5,6L17.3,75c2.5-1.5,6.5-3.7,11.5-5C36.6,67.9,48.5,67.4,60.7,76.9z"/>
	</g>
	<g>
		<path class="st2" d="M14.5,34.2l1.1-0.7c0.1-0.1,0.2-0.1,0.3-0.1c0.1,0.1,0.1,0.3,0.1,0.5V34c1-0.2,1.9-0.5,2.8-1l0.2,1.3
			c-0.9,0.4-1.8,0.6-2.8,0.7c0.1,0.6,0.2,1.2,0.3,1.7c0,0.5,0.1,1,0.1,1.6l2.5-3.6l0.9,0.6l-0.9,1.2l1.1,0.8l1.2-1.7l0.9,0.6
			L21.1,38l2.7,2c0.4-0.8,0.8-1.5,1.2-2.3l0.8,0.6c-0.5,1.1-1.4,2.9-2.7,5.3c0.1,0.2,0.1,0.3,0,0.4c0,0-0.1,0-0.2,0l-1.1-0.4
			c0.5-0.8,1-1.6,1.4-2.4l-2.8-2l-1.4,2l-1-0.8l1.4-2l-1.1-0.8l-1,1.4l-0.8-0.6c0,0.3,0,0.5,0,0.8l-1.3,0.3c0-1.1,0-2-0.2-2.8
			C15,36,14.8,35.1,14.5,34.2z M18.1,29.4l1-0.7c0.2-0.1,0.3-0.1,0.3-0.1c0.1,0,0,0.2-0.1,0.5c0.1,0.3,0.2,0.6,0.4,0.8l1.5-2.1
			c0-0.1,0-0.2,0.1-0.3l0.2-0.1l0.8-0.1c0.1,0,0.2,0,0.3,0.1c0.1,0,0.1,0.2,0,0.5c0.7,1.2,1.1,2.2,1.3,3c0.2,0.6,0.3,1.3,0.3,2.1
			c0,0,0,0.1,0,0.2l2.3-3.2l4.4,3.2L30,34.4L29.4,34l-1.8,2.4l0.6,0.4l-0.8,1.1L24,35.3c0,0.3-0.1,0.5-0.1,0.8l-1.2,0.2
			c0.3-1.5,0.4-2.6,0.4-3.5c-0.5,0.1-1.1,0.3-1.7,0.4l-0.4-1c0.6-0.2,1.2-0.3,1.8-0.4c-0.1-0.3-0.1-0.7-0.2-1
			c-0.2-0.5-0.4-1.1-0.8-1.8l-1.5,2.1c0,0.1,0.1,0.2,0.1,0.3c0.2,0.6,0.4,1.4,0.5,2.5l-1.4,0.4c0-0.8-0.1-1.6-0.3-2.4
			C18.9,31.2,18.6,30.4,18.1,29.4z M20.1,40.7c0.7,0.1,1.4,0.2,2.1,0.3L22,42.2c-0.7-0.1-1.4-0.2-2.2-0.3L20.1,40.7z M22.4,37.5
			l0.9-0.7c0.1-0.1,0.2-0.1,0.3-0.1c0,0,0,0.2,0,0.4c0.2,0.4,0.4,0.8,0.6,1.3L23.4,39c-0.1-0.3-0.3-0.5-0.4-0.7
			C22.8,38.1,22.6,37.8,22.4,37.5z M26.8,35.7l1.8-2.4l-2-1.4l-1.8,2.4L26.8,35.7z"/>
		<path class="st2" d="M46.7,7.7L48,7.8c0.1,0,0.2,0,0.3,0.1c0,0.1,0,0.1,0,0.2L51.9,7l-0.3-0.8l1.1-0.3c0.2-0.1,0.3,0,0.4,0.1
			c0,0.1,0,0.2-0.1,0.4l0.1,0.3l4-1.3l0.3,0.9l-4,1.3l0.2,0.6L57.2,7l1.3,4.1l-0.7,0.2c0.7,0.2,1.4,0.5,2.1,0.9l-0.8,1
			c-0.3-0.2-0.5-0.3-0.8-0.5c-1.6,0.7-4.1,1.6-7.3,2.9c-0.1,0.2-0.1,0.3-0.2,0.3c-0.1,0-0.2,0-0.2-0.1l-0.6-1c1.3-0.5,2.7-0.9,4-1.4
			l-0.2-0.7l-3.5,1.1L49,9.7l3.5-1.1L52.3,8l-3.7,1.2l-0.3-0.8l-0.1,0.1C48,9.2,48,10,47.9,10.7l2.9,8.9L49.5,20l-2.1-6.5
			c-0.1,0.6-0.3,1.2-0.4,1.8l-1.3-0.6c0.4-1.2,0.6-2.3,0.8-3.4C46.7,10.4,46.7,9.1,46.7,7.7z M50.6,10.8l2.3-0.7l-0.2-0.6l-2.3,0.7
			L50.6,10.8z M50.5,16.2l6.5-2.1l-0.2-0.7l1.3-0.3c0.1,0,0.2,0,0.3,0.1c0,0.1,0,0.2-0.2,0.4v0.1l1.6-0.5l0.3,1l-1.6,0.5l0.3,0.8
			c0.2,0.5,0.1,0.9-0.2,1.3c-0.2,0.3-0.9,0.7-2.1,1.1L55.7,17l1.3-0.4c0.5-0.1,0.6-0.4,0.5-0.8l-0.2-0.6L53,16.5
			c0.6,0.1,1.2,0.3,1.9,0.6l-0.9,1c-0.6-0.3-1.1-0.6-1.8-0.7l0.6-0.8l-2,0.6L50.5,16.2z M53.4,11.6L53.2,11l-2.3,0.7l0.2,0.7
			L53.4,11.6z M53.9,9.1l0.2,0.6l2.4-0.8l-0.2-0.6L53.9,9.1z M57,10.5l-0.2-0.7l-2.4,0.8l0.2,0.7L57,10.5z M57,12.1
			c-0.2-0.1-0.3-0.1-0.5-0.2l0.2-0.3l-1.9,0.6l0.2,0.6C55.7,12.5,56.4,12.3,57,12.1z"/>
		<path class="st2" d="M85.7,8.1l5.6,1.9c0-0.1,0.1-0.2,0.1-0.3l0.7-2.2c0.1-0.3,0.2-0.6,0.2-1l1.4,0.6C93.9,7.2,94,7.3,94,7.4
			c0,0.1-0.2,0.2-0.5,0.3l-0.9,2.5c0,0.1-0.1,0.2-0.1,0.3l5.5,1.9l-0.4,1.1l-5.5-1.9c0,1.7,0.3,3.2,0.9,4.4c0.5,1.2,1.5,2.5,3,3.7
			l-1.6,0.8c-1.2-1.2-2.1-2.6-2.7-4.2c-0.3-0.9-0.6-1.9-0.7-3.1c-0.2,0.3-0.5,0.6-0.7,0.8c-0.8,0.8-1.9,1.4-3.4,1.9
			c-1.1,0.4-2.3,0.6-3.7,0.8l-0.9-1.4c1.4-0.1,2.5-0.3,3.4-0.5c1.3-0.4,2.3-0.8,3-1.4c0.7-0.6,1.3-1.4,1.8-2.3L85,9.2L85.7,8.1z"/>
		<path class="st2" d="M122.7,38.4c0.1,0.1,0.1,0.2,0.1,0.3l0.1,0.8c0,0.1,0,0.2-0.1,0.2c-0.1,0.1-0.2,0-0.5-0.1l-2.6-1l3.1,4.5
			l-0.9,0.6l-3.4-4.9l-0.6,0.4c-0.5,0.3-0.9,0.4-1.3,0.2c-0.4-0.1-1-0.7-1.7-1.7l0.7-1.1l0.8,1.1c0.3,0.4,0.6,0.5,0.9,0.3l0.4-0.3
			l-3.5-5l0.9-0.6l3.5,5l0.5-0.4l0.4,0.8l1.3,0.4l-2.8-4.1l0.8-0.6l3.4,4.9L122.7,38.4z M124.6,30.8c0-0.1-0.1-0.1-0.2-0.2
			c-0.4-0.3-0.8-0.7-1.3-1.2l-0.5,0.3l1.2,1.7L123,32l-1.2-1.7l-0.6,0.4l1.2,1.7l-0.8,0.5l-1.2-1.7l-0.6,0.4L125,39l0.6-0.4
			l-1.1-1.6l0.8-0.5l1.1,1.6l0.6-0.4l-1.1-1.6l0.8-0.5l1.1,1.6l0.6-0.4l-1.2-1.7l0.8-0.6l1.9,2.8l-4.1,2.9l0.6,0.9l-2.3,1.6
			l-0.8-1.1l1.4-1l-6.2-9l-1.4,1l-0.8-1.1l2.3-1.6l0.6,0.8l4.2-2.9l0.1,0.7c0.3,0.3,0.5,0.5,0.7,0.7c0.3,0.3,0.7,0.5,1,0.7L125,31
			c0,0.1-0.1,0.2-0.2,0.3c-0.1,0-0.1,0-0.1,0L124.6,30.8z M125.2,34.8l0.2,0.9c0,0.1,0,0.2,0,0.2c-0.1,0.1-0.2,0-0.3-0.1
			c-0.3-0.1-0.7-0.2-0.9-0.3c0,0.4,0,0.7,0,1.1l-0.9-0.3c0-0.4,0-0.8,0-1.2c-0.4-0.2-0.9-0.5-1.4-0.8l0.1-0.9
			c0.5,0.3,0.9,0.5,1.3,0.7c0-0.5-0.1-1-0.1-1.4l0.8,0.2c0.1,0.5,0.1,1,0.1,1.6C124.4,34.6,124.8,34.7,125.2,34.8z M127.4,33.2
			l0.2,0.9c0,0.1,0,0.2,0,0.2c-0.1,0.1-0.2,0-0.3-0.1c-0.4-0.1-0.7-0.2-1-0.3c0,0.4,0,0.8,0,1.2l-0.9-0.3c0-0.5,0-0.9,0-1.4
			c-0.4-0.2-0.9-0.4-1.4-0.8l0.1-0.9c0.4,0.3,0.8,0.5,1.2,0.7c0-0.4-0.1-0.9-0.2-1.3l0.8,0.2c0.1,0.5,0.2,0.9,0.2,1.4
			C126.5,33,127,33.1,127.4,33.2z"/>
	</g>
	<g>
		<path class="st2" d="M7.6,88.2l8.2-2.7l0.5,1.6L11.2,91c-0.5,0.4-0.8,0.6-1.1,0.8c0.3,0,0.8,0,1.5,0l6.3,0.1l0.5,1.4L10.2,96
			l-0.3-1l6.8-2.3L9,92.5l-0.3-1l6.2-4.7L8,89.1L7.6,88.2z"/>
		<path class="st2" d="M11.4,98.4l7.8-3.6l0.5,1l-7.8,3.6L11.4,98.4z"/>
		<path class="st2" d="M12.9,101.8l7.4-4.4l0.6,1l-3.5,7.3l5.8-3.4l0.6,0.9l-7.4,4.4l-0.6-1l3.5-7.3l-5.8,3.4L12.9,101.8z"/>
		<path class="st2" d="M23.1,111l0.8-0.6l2.3,2.8l-2.5,2c-0.7-0.2-1.3-0.4-1.9-0.7c-0.6-0.3-1-0.7-1.4-1.2c-0.5-0.7-0.9-1.4-1-2.1
			c-0.2-0.8-0.1-1.5,0.2-2.2c0.3-0.7,0.8-1.3,1.4-1.9c0.6-0.5,1.4-0.9,2.2-1.1c0.8-0.2,1.5-0.1,2.2,0.1c0.7,0.3,1.3,0.8,1.8,1.4
			c0.4,0.5,0.7,1,0.8,1.5c0.2,0.5,0.2,1,0.1,1.4s-0.3,0.9-0.7,1.4l-0.9-0.6c0.3-0.4,0.4-0.7,0.5-1s0.1-0.6-0.1-1
			c-0.1-0.4-0.3-0.7-0.6-1.1c-0.3-0.4-0.7-0.7-1-0.9c-0.4-0.2-0.7-0.3-1.1-0.3c-0.3,0-0.7,0-1,0.1c-0.6,0.2-1.1,0.4-1.6,0.8
			c-0.6,0.5-1,1-1.2,1.5s-0.3,1.1-0.2,1.6c0.1,0.5,0.4,1,0.7,1.5c0.3,0.4,0.7,0.7,1.1,0.9c0.4,0.2,0.8,0.4,1.1,0.4l1.2-1L23.1,111z"
			/>
		<path class="st2" d="M36.8,123.9l0.8,0.9c-0.7,0.6-1.5,0.9-2.3,1s-1.5-0.2-2.3-0.7s-1.3-1.1-1.5-1.8c-0.2-0.6-0.3-1.3-0.1-2.1
			c0.2-0.8,0.5-1.5,1-2.1c0.5-0.7,1.1-1.3,1.8-1.6c0.7-0.3,1.4-0.5,2.1-0.4c0.7,0.1,1.4,0.4,2,0.8c0.7,0.5,1.2,1.1,1.4,1.8
			c0.2,0.7,0.2,1.4-0.1,2.2l-1.1-0.4c0.2-0.6,0.2-1.2,0.1-1.6c-0.1-0.5-0.4-0.9-0.9-1.2c-0.5-0.4-1.1-0.6-1.6-0.6s-1.1,0.2-1.5,0.5
			c-0.5,0.3-0.9,0.7-1.2,1.2c-0.4,0.6-0.7,1.2-0.9,1.7c-0.1,0.6-0.1,1.1,0.1,1.6c0.2,0.5,0.5,0.9,0.9,1.2c0.5,0.4,1.1,0.5,1.6,0.5
			C35.7,124.6,36.3,124.4,36.8,123.9z"/>
		<path class="st2" d="M38,128.2l4-7.6l1,0.5l-1.6,3.1l4,2.1l1.6-3.1l1,0.5l-4,7.6l-1-0.5l1.9-3.6l-3.9-2.1l-1.9,3.6L38,128.2z"/>
		<path class="st2" d="M54.7,126.2l1.1,0.4l-1.6,4.7c-0.3,0.8-0.6,1.4-1,1.8c-0.4,0.4-0.8,0.7-1.4,0.8c-0.6,0.1-1.3,0.1-2.1-0.2
			s-1.3-0.6-1.7-1s-0.6-0.9-0.6-1.5s0.1-1.3,0.4-2.1l1.6-4.7l1.1,0.4l-1.6,4.7c-0.2,0.7-0.4,1.2-0.3,1.6c0,0.4,0.2,0.7,0.4,1
			c0.3,0.3,0.6,0.5,1.1,0.7c0.8,0.3,1.4,0.3,1.9,0.1s0.9-0.9,1.2-1.9L54.7,126.2z"/>
		<path class="st2" d="M54.7,135.2l4.9-7.8l1.2,0.2l1.8,9.1l-1.3-0.3l-0.5-2.8l-3.6-0.7l-1.4,2.4L54.7,135.2z M57.8,132.2l2.9,0.6
			l-0.4-2.5c-0.1-0.8-0.2-1.4-0.3-1.9c-0.2,0.5-0.5,1-0.8,1.5L57.8,132.2z"/>
		<path class="st2" d="M64.3,136.9l0.5-8.6l1.2,0.1l4.1,7l0.4-6.7l1.1,0.1l-0.5,8.6l-1.2-0.1l-4.1-7l-0.4,6.7L64.3,136.9z"/>
		<path class="st2" d="M85,127l1.1-0.2l1,4.9c0.2,0.8,0.2,1.5,0.1,2.1c-0.1,0.5-0.4,1-0.8,1.4s-1.1,0.7-1.9,0.9s-1.5,0.2-2,0
			c-0.6-0.2-1-0.5-1.3-1s-0.6-1.2-0.8-2l-1-4.9l1.1-0.2l1,4.9c0.1,0.7,0.3,1.3,0.5,1.6s0.5,0.5,0.9,0.7c0.4,0.1,0.8,0.1,1.3,0
			c0.8-0.2,1.4-0.5,1.6-0.9c0.3-0.4,0.3-1.2,0.1-2.2L85,127z"/>
		<path class="st2" d="M90.5,134.5l-2.9-8.1l1.1-0.4l6.5,4.8l-2.3-6.4l1-0.4l2.9,8.1l-1.1,0.4l-6.5-4.8l2.3,6.4L90.5,134.5z"/>
		<path class="st2" d="M99.3,131l-3.7-7.8l1-0.5l3.7,7.8L99.3,131z"/>
		<path class="st2" d="M104.8,128.1l-7.3-5.7l1.1-0.6l5.1,4.2c0.4,0.3,0.8,0.7,1.1,1c-0.1-0.5-0.2-1-0.3-1.4l-1.2-6.6l1-0.6l1.6,9.1
			L104.8,128.1z"/>
		<path class="st2" d="M110.2,124.6l-5.4-6.7l4.8-3.9l0.6,0.8l-3.9,3.2l1.6,2l3.7-3l0.6,0.8l-3.7,3l1.8,2.3l4.1-3.3l0.6,0.8
			L110.2,124.6z"/>
		<path class="st2" d="M117,119l-6.3-5.9l2.6-2.8c0.5-0.6,1-0.9,1.4-1.1s0.8-0.2,1.3-0.1c0.4,0.1,0.8,0.3,1.2,0.6
			c0.4,0.4,0.7,0.9,0.7,1.5s-0.2,1.2-0.7,1.9c0.3-0.1,0.6-0.2,0.8-0.2c0.4,0,0.9,0,1.5,0.1l2.7,0.5l-1,1l-2.1-0.4
			c-0.6-0.1-1.1-0.2-1.4-0.2s-0.6,0-0.8,0c-0.2,0-0.4,0.1-0.5,0.2s-0.3,0.2-0.5,0.4l-0.9,1l2.8,2.6L117,119z M114.3,114.8l1.7-1.8
			c0.4-0.4,0.6-0.7,0.7-1s0.2-0.6,0.1-0.8c-0.1-0.3-0.2-0.5-0.4-0.7c-0.3-0.3-0.6-0.4-1-0.4s-0.8,0.3-1.2,0.8l-1.9,2L114.3,114.8z"
			/>
		<path class="st2" d="M120.9,110.6l0.5-0.9c0.4,0.2,0.7,0.3,1.1,0.3c0.3,0,0.7-0.1,1-0.3c0.4-0.2,0.7-0.5,1-0.9
			c0.2-0.4,0.4-0.7,0.5-1s0.1-0.6,0-0.9s-0.2-0.5-0.5-0.6c-0.2-0.2-0.5-0.2-0.7-0.2c-0.3,0-0.5,0.1-0.9,0.3c-0.2,0.1-0.6,0.5-1.2,1
			s-1.1,0.9-1.4,1c-0.4,0.2-0.8,0.3-1.2,0.3c-0.4,0-0.7-0.1-1-0.4c-0.4-0.3-0.6-0.6-0.8-1c-0.2-0.4-0.2-0.9-0.1-1.4s0.3-1,0.7-1.5
			c0.4-0.5,0.8-0.9,1.2-1.2c0.4-0.3,0.9-0.4,1.4-0.4s0.9,0.2,1.3,0.4l-0.6,0.9c-0.5-0.3-0.9-0.3-1.3-0.2c-0.4,0.1-0.8,0.4-1.2,1
			c-0.4,0.6-0.6,1-0.6,1.4s0.2,0.7,0.5,0.9c0.3,0.2,0.5,0.2,0.8,0.2c0.3-0.1,0.8-0.4,1.5-1s1.2-1,1.5-1.2c0.5-0.3,0.9-0.4,1.4-0.4
			c0.4,0,0.8,0.1,1.2,0.4c0.4,0.3,0.6,0.6,0.8,1.1c0.2,0.4,0.2,0.9,0.1,1.5c-0.1,0.5-0.3,1-0.7,1.5c-0.4,0.6-0.9,1.1-1.4,1.4
			s-1,0.4-1.5,0.4C121.9,111.1,121.3,110.9,120.9,110.6z"/>
		<path class="st2" d="M128.2,104.6l-7.5-4.3l0.6-1l7.5,4.3L128.2,104.6z"/>
		<path class="st2" d="M131,99.4l-6.9-3.2l-1.2,2.6l-0.9-0.4l2.9-6.2l0.9,0.4l-1.2,2.6l6.9,3.2L131,99.4z"/>
		<path class="st2" d="M134.1,91.7l-3.5-1.1l-5.7,1.7l0.4-1.3l3-0.8c0.6-0.2,1.1-0.3,1.6-0.4c-0.3-0.4-0.7-0.8-1.2-1.4l-1.9-2.4
			l0.4-1.3l3.7,4.8l3.5,1.1L134.1,91.7z"/>
	</g>
</g>
</svg>
